<svg id="Capa_1" enable-background="new 0 0 512 512" height="512" viewBox="0 0 512 512" width="512" xmlns="http://www.w3.org/2000/svg"><g><path d="m102.796 275.788c0 85.58 69.624 155.204 155.204 155.204s155.204-69.624 155.204-155.204-69.624-155.204-155.204-155.204-155.204 69.624-155.204 155.204zm155.204-140.204c77.309 0 140.204 62.896 140.204 140.204s-62.895 140.203-140.204 140.203-140.204-62.895-140.204-140.204 62.895-140.203 140.204-140.203z"/><path d="m89.118 433.061-6.97-149.917c-.289-5.399-3.257-10.037-7.566-12.682v-86.929h.54c16.469 0 29.866-13.398 29.866-29.866 0-10.329 0-84.521 0-94.842 0-4.142-3.357-7.5-7.5-7.5s-7.5 3.358-7.5 7.5v78.208h-15.406v-78.208c0-4.142-3.357-7.5-7.5-7.5s-7.5 3.358-7.5 7.5v78.208h-14.175v-78.208c0-4.142-3.357-7.5-7.5-7.5s-7.5 3.358-7.5 7.5v78.208h-15.407v-78.208c0-4.142-3.357-7.5-7.5-7.5s-7.5 3.358-7.5 7.5v94.842c0 16.468 13.397 29.866 29.866 29.866h.541v86.932c-4.311 2.648-7.279 7.299-7.568 12.731l-6.967 149.841c-1.118 21.025 15.585 38.622 36.623 38.622 21.035-.001 37.726-17.59 36.623-38.598zm-74.118-279.394v-1.634h74.988v1.634c0 8.197-6.669 14.866-14.866 14.866-10.147 0-35.686 0-45.256 0-8.197 0-14.866-6.669-14.866-14.866zm44.582 29.866v84.583h-14.175v-84.583zm-7.087 273.125c-12.386 0-22.308-10.331-21.642-22.875l6.967-149.84c.024-.463.407-.826.87-.826h.004l27.637.006c.448.018.814.368.835.77l6.968 149.891c.001.017.002.034.003.05.662 12.426-9.209 22.824-21.642 22.824z"/><path d="m237.165 390.235c4.075.736 7.978-1.969 8.715-6.045.738-4.076-1.969-7.978-6.045-8.716-48.179-8.717-83.147-50.642-83.147-99.687 0-55.864 45.448-101.313 101.312-101.313s101.312 45.449 101.312 101.313c0 50.107-37.347 93.22-86.871 100.284-4.102.585-6.951 4.383-6.366 8.484.533 3.742 3.742 6.442 7.415 6.442.353 0 .71-.025 1.068-.076 27.455-3.916 52.679-17.625 71.025-38.601 18.525-21.182 28.729-48.361 28.729-76.533 0-64.135-52.178-116.313-116.312-116.313s-116.312 52.178-116.312 116.313c0 56.306 40.154 104.438 95.477 114.448z"/><path d="m509.498 386.989c-.221-4.137-3.771-7.314-7.888-7.091-4.136.22-7.311 3.751-7.091 7.888l2.449 46.047c.661 12.426-9.21 22.825-21.643 22.825-12.444 0-22.303-10.408-21.645-22.825l6.97-131.024c.024-.463.407-.826.871-.826l27.637.006c.449.016.817.368.841.82l2.657 49.976c.221 4.138 3.756 7.323 7.888 7.091 4.136-.22 7.311-3.751 7.091-7.888l-2.657-49.978c-.289-5.399-3.257-10.037-7.566-12.682v-23.127c7.223-1.848 12.587-8.392 12.587-16.183v-190.969c0-6.054-2.948-11.759-7.887-15.261s-11.299-4.398-17.013-2.395c-38.441 13.476-64.27 49.899-64.27 90.635v95.168c0 6.049 3.295 11.646 8.598 14.606 5.332 2.977 9.319 7.795 11.229 13.568 1.905 5.755 6.758 9.899 12.58 11.042v22.917c-4.31 2.645-7.278 7.283-7.565 12.683l-6.97 131.024c-1.119 21.027 15.586 38.621 36.623 38.621 21.055 0 37.739-17.614 36.621-38.622zm-41.26-120.248h14.175v20.242h-14.175zm-31.498-38.035c-.561-.313-.909-.892-.909-1.509v-95.168c0-34.373 21.794-65.108 54.232-76.479 1.572-.549 2.789.061 3.373.475s1.564 1.356 1.564 3.024v190.97c0 .95-.772 1.722-1.723 1.722h-3.364-29.175-4.244c-.729 0-1.385-.445-1.596-1.082-3.09-9.346-9.54-17.142-18.158-21.953z"/></g></svg>