<?xml version="1.0" encoding="iso-8859-1"?>
<!-- Generator: Adobe Illustrator 19.0.0, SVG Export Plug-In . SVG Version: 6.00 Build 0)  -->
<svg version="1.1" id="Capa_1" xmlns="http://www.w3.org/2000/svg" xmlns:xlink="http://www.w3.org/1999/xlink" x="0px" y="0px"
	 viewBox="0 0 397.2 397.2" style="enable-background:new 0 0 397.2 397.2;" xml:space="preserve">
<g>
	<g>
		<path d="M299.016,351.2v-170h-0.8c0-27.6-16-60-16.8-61.2l-30.8-64.4c10.8-4,18.8-14.4,18.8-26.8c0-16-12.8-28.8-28.8-28.8h-84.4
			c-16,0-28.8,12.8-28.8,28.8c0,12.4,7.6,22.8,18.8,26.8l-30.8,64.4c-1.2,1.6-17.2,34-17.2,61.2v13.2V280v70.8
			c0,0.8-1.6,23.2,11.2,36.4c6.4,6.8,14.8,10,25.2,10h128c10.4,0,18.8-3.6,25.2-10C300.216,373.6,299.016,351.6,299.016,351.2z
			 M141.416,28.8c0-8,6.8-14.8,14.8-14.8h84.4c8,0,14.8,6.8,14.8,14.8s-6.8,14.8-14.8,14.8h-84.4
			C147.816,43.6,141.416,36.8,141.416,28.8z M112.216,181.2c0-24,15.2-54.4,15.2-54.8l32.8-68.8h75.6l33.2,68.8
			c0,0.4,15.2,30.8,15.2,54.8v6h-172V181.2z M112.216,201.6h172v71.6h-172V201.6z M277.016,378c-3.6,4-8.4,5.6-14.8,5.6h-128
			c-6.4,0-11.2-2-14.8-5.6c-8.4-9.2-7.2-26-7.2-26.4v-64h172v64.8C284.216,352,285.416,368.8,277.016,378z"/>
	</g>
</g>
<g>
	<g>
		<path d="M171.016,214.8h-13.6l-4.8,15.2c-1.6,5.2-3.2,11.2-4.4,16.4h-0.4c-1.2-5.6-2.4-11.2-4-16.4l-4.4-15.2h-14l-2.8,46h9.6
			l0.8-17.6c0.4-5.6,0.4-12.8,0.8-19.2c1.2,6,2.8,12.4,4,18l4.8,18h8l5.6-18c1.6-5.2,3.6-12,5.2-18h0.8c0,6.8,0.4,13.2,0.4,18.8
			l0.8,17.6h10L171.016,214.8z"/>
	</g>
</g>
<g>
	<g>
		<rect x="181.416" y="214.8" width="10.4" height="46"/>
	</g>
</g>
<g>
	<g>
		<polygon points="211.416,252 211.416,214.8 201.016,214.8 201.016,260.8 229.816,260.8 229.816,252 		"/>
	</g>
</g>
<g>
	<g>
		<path d="M257.816,234.4l15.2-19.6h-12.8l-10.4,15.2c-1.2,1.6-2,3.2-3.2,5.2h-0.4v-20.4h-10.4v46h10.4v-15.2l4-4.8l11.2,20h12
			L257.816,234.4z"/>
	</g>
</g>
<g>
</g>
<g>
</g>
<g>
</g>
<g>
</g>
<g>
</g>
<g>
</g>
<g>
</g>
<g>
</g>
<g>
</g>
<g>
</g>
<g>
</g>
<g>
</g>
<g>
</g>
<g>
</g>
<g>
</g>
</svg>
