<?xml version="1.0"?>
<svg xmlns="http://www.w3.org/2000/svg" id="Outline" viewBox="0 0 512 512" width="512" height="512"><path d="M208,136H128a8,8,0,0,0,0,16h80a8,8,0,0,0,0-16Z"/><path d="M488,176H316.18c-4.166-53.527-10.508-106.775-11.945-118.581l14.92-29.841A8,8,0,0,0,312,16H24a8,8,0,0,0-7.155,11.578L31.766,57.42C29.579,75.409,16,189.769,16,256S29.579,436.591,31.766,454.58L16.845,484.422A8,8,0,0,0,24,496H488a8,8,0,0,0,8-8V184A8,8,0,0,0,488,176ZM299.056,32l-8,16H44.944l-8-16ZM192,480H36.944l8-16H192Zm0-145.608a56.662,56.662,0,0,1-24.012.606c21.234-21.948,6.161-46.543-7.341-62.139a164.5,164.5,0,0,1,17.9-.859c4.962,0,9.415.146,13.454.443Zm-35.9-10.108c-7.388,7.388-17.8,10.971-29.327,10.083-11.988-.922-23.67-6.512-32.9-15.74s-14.817-20.911-15.739-32.9c-.887-11.523,2.694-21.939,10.083-29.327,4.328-4.328,8.728-6.438,13.682-6.438a22.713,22.713,0,0,1,7.842,1.545c8.116,2.983,17.454,9.93,29.387,21.864C168.955,303.2,164.91,315.47,156.1,324.284ZM192,256.41c-4.118-.271-8.569-.41-13.454-.41-12.843,0-22.984.93-31.336,2.9-12.185-11.731-22.413-18.9-31.952-22.4-14.235-5.233-27.5-2.26-38.359,8.6C66.156,255.832,60.928,270.7,62.178,286.957c1.215,15.793,8.452,31.058,20.379,42.984s27.192,19.164,42.984,20.379q2.371.181,4.7.181a54.5,54.5,0,0,0,20.719-3.972A72.045,72.045,0,0,0,178.546,352,73.17,73.17,0,0,0,192,350.75V448H47.09C43.792,420.325,32,317.108,32,256S43.792,91.677,47.09,64H288.911c2.073,17.369,7.49,64.455,11.22,112H234.346C248.37,167.372,256,156.182,256,144c0-13.873-9.892-26.459-27.854-35.439C211.947,100.46,190.587,96,168,96s-43.947,4.46-60.146,12.561C89.892,117.541,80,130.127,80,144s9.892,26.459,27.854,35.439C124.053,187.54,145.413,192,168,192a163.988,163.988,0,0,0,24-1.743ZM168,176c-42.431,0-72-16.864-72-32s29.569-32,72-32,72,16.864,72,32S210.431,176,168,176ZM416,480H208V192H416Zm64,0H432V192h48Z"/><path d="M312,288a64,64,0,1,0,64,64A64.072,64.072,0,0,0,312,288Zm0,112a47.9,47.9,0,0,1-11.484-1.4,8,8,0,1,0-12.346-4.961,47.921,47.921,0,0,1-14.919-69.924,8.037,8.037,0,1,0,.771-1.02A47.938,47.938,0,0,1,312,304a8,8,0,0,0,15.559,2.6A47.993,47.993,0,0,1,312,400Z"/><circle cx="288" cy="360" r="8"/><circle cx="328" cy="376" r="8"/><circle cx="352" cy="352" r="8"/><circle cx="320" cy="336" r="8"/><path d="M248,264H376a8,8,0,0,0,8-8V224a8,8,0,0,0-8-8H248a8,8,0,0,0-8,8v32A8,8,0,0,0,248,264Zm8-32H368v16H256Z"/><path d="M344,440H280a8,8,0,0,0,0,16h64a8,8,0,0,0,0-16Z"/><path d="M104,416h40a8,8,0,0,0,0-16H104a8,8,0,0,0,0,16Z"/><circle cx="72" cy="408" r="8"/></svg>
