<?xml version="1.0" encoding="utf-8"?>
<!-- Generator: Adobe Illustrator 25.1.0, SVG Export Plug-In . SVG Version: 6.00 Build 0)  -->
<svg version="1.1" id="bold" xmlns="http://www.w3.org/2000/svg" xmlns:xlink="http://www.w3.org/1999/xlink" x="0px" y="0px"
	 viewBox="0 0 512 512" style="enable-background:new 0 0 512 512;" xml:space="preserve">
<style type="text/css">
	.st0{fill:#009245;}
</style>
<path class="st0" d="M453.3,373.3h-320c-8.8,0-16-7.2-16-16s7.2-16,16-16h32h0h288c7.6,0,14.1-5.3,15.7-12.7L511.7,126
	c1-4.7-0.2-9.6-3.2-13.4c-3.1-3.7-7.6-5.9-12.4-5.9H135.7l-8.1-38.5c-5.7-26.9-29.7-46.5-57.2-46.6l-54.3-0.2c0,0-0.1,0-0.1,0
	c-8.8,0-16,7.1-16,15.9s7.1,16,15.9,16.1l54.3,0.2c12.5,0,23.4,9,26,21.2L107,126l38.6,183.4h-12.3c-26.5,0-48,21.5-48,48
	c0,26.5,21.5,48,48,48h320c8.8,0,16-7.2,16-16S462.2,373.3,453.3,373.3z"/>
<circle class="st0" cx="224" cy="458.7" r="32"/>
<circle class="st0" cx="394.7" cy="458.7" r="32"/>
</svg>
